<svg xmlns="http://www.w3.org/2000/svg" width="300" height="234" viewBox="0 0 300 234">
    <defs>
        <linearGradient id="a" x1="50%" x2="50%" y1="0%" y2="100%">
            <stop offset="0%" stop-color="#FAA600"/>
            <stop offset="100%" stop-color="#F46D00"/>
        </linearGradient>
        <linearGradient id="b" x1=".042%" y1="50.012%" y2="50.012%">
            <stop offset="0%" stop-color="gray" stop-opacity=".25"/>
            <stop offset="54%" stop-color="gray" stop-opacity=".12"/>
            <stop offset="100%" stop-color="gray" stop-opacity=".1"/>
        </linearGradient>
        <linearGradient id="c" x1="50%" x2="50%" y1="0%" y2="100%">
            <stop offset="0%" stop-color="#096484"/>
            <stop offset="100%" stop-color="#04344D"/>
        </linearGradient>
        <linearGradient id="d" x1="50%" x2="50%" y1="0%" y2="42.875%">
            <stop offset="0%" stop-color="#096484"/>
            <stop offset="100%" stop-color="#04344D"/>
        </linearGradient>
        <linearGradient id="e" x1="50%" x2="50%" y1="0%" y2="100%">
            <stop offset="0%" stop-color="#FA0089"/>
            <stop offset="100%" stop-color="#F20051"/>
        </linearGradient>
        <linearGradient id="f" x1="50%" x2="50%" y1="0%" y2="100%">
            <stop offset="0%" stop-color="#9FE14E"/>
            <stop offset="100%" stop-color="#66BF26"/>
        </linearGradient>
    </defs>
    <g fill="none" fill-rule="evenodd">
        <path fill="#EFB7B9" d="M117.689 111.13l-.635-.181c.18-.593.231-1.073.083-1.295-.727-1.072-10.036-3.317-11.22-5.11-1.184-1.791-3.932-2.893-3.932-2.893s-2.833-1.712-3.026-3.258c-.193-1.547.555-2.699.744-3.377.19-.678.671-7.23.671-7.23s3.19-23.309-11.039-21.286c0 0-7.62 3.377-7.249 11.662.27 5.338.853 10.655 1.748 15.924 0 0-1.558 12.467 4.929 15.68a343.37 343.37 0 0 0 12.49 5.857s10.145 1.087 11.409 1.54c.478.172 1.341-.714 2.187-1.931l.48.447 8.268 7.719s10.667 2.248 13.635-1.99c2.507-3.567-14.187-8.733-19.543-10.279z"/>
        <path fill="#DCE6F2" fill-rule="nonzero" d="M117.303 110.448c-.322 1.239-.673 2.142-1.053 2.71-.57.85-2.982 3.842-4.115 3.842-.756 0-4.417-1.48-10.983-4.44l-.002-11.83c4.564 3.61 7.536 5.665 8.915 6.163 1.054.38 3.357.79 5.615 1.972.466.243 1.007.771 1.623 1.583z"/>
        <ellipse cx="104.442" cy="219.566" fill="#B8C5CC" opacity=".1" rx="52.255" ry="9.881"/>
        <path fill="#B8C5CC" d="M174.052 32.996c-19.205-.664-37.496-6.854-54.962-13.625C101.624 12.599 84.325 5.1 65.58 1.513 53.523-.795 39.734-1.124 30.022 5.322c-9.35 6.22-12.37 16.928-13.994 26.871-1.223 7.482-1.94 15.358 1.406 22.364 2.327 4.863 6.451 8.95 9.306 13.61 9.932 16.208 2.911 36.196-7.849 52.022-5.044 7.423-10.905 14.514-14.8 22.408-3.897 7.894-5.698 16.97-2.289 25.044 3.377 7.997 11.428 13.992 20.149 18.213 17.712 8.575 38.575 11.028 58.934 12.42 45.054 3.075 90.345 1.745 135.517.409 16.718-.492 33.507-.993 49.952-3.572 9.134-1.434 18.561-3.709 25.193-9.2 8.416-6.97 10.502-18.77 4.86-27.509-9.46-14.662-35.608-18.302-42.228-34.033-3.638-8.661.098-18.306 5.389-26.336 11.347-17.23 30.365-32.345 31.365-52.037.688-13.524-8.454-27.07-22.59-33.47-14.817-6.71-35.366-5.865-46.291 5.24-11.261 11.42-31.042 15.82-48 15.23z" opacity=".1"/>
        <path fill="url(#a)" fill-rule="nonzero" d="M9.25 26.208c2.154-4.615 3.489-6.987 4.006-7.116 4.265-1.063 6.431-4.868 6.431-9.398C19.688 4.34 15.28 0 9.845 0 4.407 0 0 4.34 0 9.694c0 4.702 3.546 8.513 8.057 9.398.303.06.7 1.019 1.192 2.878.124.465.124 1.878 0 4.238z" transform="translate(187.5 98.28)"/>
        <path fill="#FFF" d="M196.88 103.896c.49 0 .911.097 1.264.292.354.194.645.461.874.8.229.339.398.736.506 1.193.11.456.164.942.164 1.459 0 .523-.055 1.011-.164 1.464a3.6 3.6 0 0 1-.506 1.188c-.23.339-.52.606-.874.8-.353.195-.774.292-1.263.292-.49 0-.912-.097-1.27-.292a2.478 2.478 0 0 1-.879-.8 3.6 3.6 0 0 1-.506-1.188 6.264 6.264 0 0 1-.164-1.464c0-.517.055-1.003.164-1.46.108-.456.277-.853.506-1.192.23-.339.522-.606.88-.8.357-.195.78-.292 1.269-.292zm0 .815c-.34 0-.62.096-.838.287a1.924 1.924 0 0 0-.506.725c-.12.292-.204.609-.25.95-.047.343-.07.665-.07.967 0 .302.023.624.07.966.046.342.13.658.25.946.12.289.289.529.506.72.218.191.497.287.839.287.334 0 .607-.096.82-.287.214-.191.383-.431.507-.72.125-.288.21-.604.257-.946.046-.342.07-.664.07-.966 0-.302-.024-.624-.07-.966a3.688 3.688 0 0 0-.257-.951 2.015 2.015 0 0 0-.506-.725c-.214-.191-.487-.287-.821-.287z"/>
        <path fill="url(#b)" fill-rule="nonzero" d="M86.25 36.241l-1-.22c.33.03.68.16 1 .22z"/>
        <path fill="#EFB7B9" d="M136.846 121.073c-2.967 4.238-13.635 1.993-13.635 1.993l-8.267-7.722-1.113-1.045 1.867-3.958s.593.163 1.61.454c5.345 1.549 22.042 6.714 19.538 10.278z"/>
        <path fill="#000" d="M117.303 110.795c-.365 1.267-1.365 3.166-2.36 4.55l-1.112-1.046 1.867-3.958s.599.163 1.605.454z" opacity=".1"/>
        <path fill="#DCE6F2" d="M88.95 66.169s-7.62 3.373-7.247 11.658c.27 5.338.852 10.655 1.745 15.924 0 0-1.558 12.467 4.929 15.681a343.37 343.37 0 0 0 12.49 5.856s10.148 1.09 11.41 1.54c1.26.45 5.2-6.433 4.474-7.506-.727-1.072-10.042-3.32-11.229-5.11-1.187-1.788-3.931-2.893-3.931-2.893s-2.834-1.712-3.027-3.258c-.193-1.546.555-2.699.745-3.377.19-.678.67-7.227.67-7.227s3.2-23.311-11.03-21.288z"/>
        <g fill-rule="nonzero">
            <path fill="#04344D" d="M115.313 123.986h15.105l11.149 54.323c-8.628 10.8-13.546 17.218-14.756 19.257-1.815 3.057.633 5.039 1.66 7.107.624 1.254 1.88 2.741 3.766 4.462a2 2 0 0 0 1.347.522l95.683.007 3.233-5.54v-3.014h-89.69l-4.378-4.493 15.824-18.308c-4.677-36.215-8.907-56.136-12.689-59.763-6.136-.813-13.665-.813-22.588 0l-1.535 1.784h18.6l-19.658.804-1.074 2.852z"/>
            <path fill="#FFF" d="M134.822 121.68l5.233 1.2 10.357 51.711v1.388l-14.199 19.352 3.842 7.434 86.82.543-1.213 1.676h-90.84l-4.51-6.65 17.119-22.355-11.218-51.59z"/>
            <path stroke="#04344D" d="M146.25 130.104l84.451 5.062 1.799 40.802h-77.817z"/>
            <path fill="#04344D" stroke="#04344D" d="M232.5 175.968l-4.56 4.68h-76.065l3.166-2.34-1.291-2.34z"/>
            <g transform="translate(210.938 203.112)">
                <ellipse cx="8.625" cy="12.087" fill="#04344D" stroke="#FFF" rx="5.391" ry="5.494"/>
                <path fill="#04344D" d="M21.517.135v8.408l-2.034 4.69V4.953z"/>
                <ellipse cx="7.547" cy="17.581" fill="#04344D" stroke="#FFF" rx="7.547" ry="7.691"/>
                <path fill="#04344D" stroke="#FFF" stroke-width=".5" d="M11.613 6.679v5.755a2 2 0 0 1-2 2H7.186a2 2 0 0 0-1.868 1.283c-.411 1.074-.617 1.892-.617 2.455 0 .598.233 1.355.699 2.27a2 2 0 0 0 1.333 1.042c3.88.895 6.9.475 9.058-1.258 2.318-1.863 3.285-6.699 2.9-14.508l-7.078.96z"/>
                <ellipse cx="8.625" cy="17.581" fill="#FFF" rx="1.078" ry="1.099"/>
            </g>
            <g transform="translate(145.313 208.728)">
                <ellipse cx="8.75" cy="6.552" fill="#04344D" stroke="#FFF" rx="5.469" ry="5.46"/>
                <ellipse cx="7.656" cy="12.012" fill="#04344D" stroke="#FFF" rx="7.656" ry="7.644"/>
                <path fill="#04344D" stroke="#FFF" stroke-width=".5" d="M11.781 1.177v5.708a2 2 0 0 1-2 2H7.26a2 2 0 0 0-1.862 1.27c-.42 1.07-.629 1.884-.629 2.444 0 .596.237 1.35.71 2.26a2 2 0 0 0 1.333 1.028c3.946.895 7.015.48 9.208-1.246 2.352-1.851 3.333-6.657 2.943-14.418l-7.182.954z"/>
                <ellipse cx="8.75" cy="12.012" fill="#FFF" rx="1.094" ry="1.092"/>
            </g>
            <path stroke="#04344D" d="M154.675 131.42l8.45 44.548h-9.3l-7.072-45.553zM164.063 131.322l8.437 44.646h-9.3l-7.575-44.646zM173.438 131.976l8.437 43.992h-9.3L165 131.976zM183.75 132.912l8.438 43.056h-9.3l-9.144-43.388z"/>
            <path stroke="#04344D" d="M192.188 132.912l8.437 43.056h-9.3l-7.575-43.056zM202.5 133.848l8.438 42.12h-9.3l-8.987-42.12zM211.875 133.848l8.438 42.12h-9.3l-7.576-42.12z"/>
            <path stroke="#04344D" d="M220.313 134.872l8.437 41.096h-9.3l-7.283-41.096z"/>
            <path stroke="#04344D" d="M146.25 130.104l1.336 5.764 83.039 3.601v-3.6zM149.063 145.08l1.338 5.015 81.13 2.851-.906-4.443zM151.875 160.992l1.34 4.68h78.717v-3.892z"/>
        </g>
        <path fill="#000" d="M93.98 93.41s-10.455 1.748-9.443 5.4c0 0 3.796-3.942 9.442-5.4zM94.06 94.888s-5.748 4.683-4.624 4.923c1.125.24 4.624-4.923 4.624-4.923zM96.822 96.52s-1.54 3.15-.593 2.936c.946-.213.593-2.935.593-2.935z" opacity=".1"/>
        <path fill="#04344D" d="M84.564 35.073c-.29.057-.569.164-.822.317-.297.246-.297.667-.37 1.034-.088.511-.291.995-.594 1.416.337.025.676-.031.988-.163a5.07 5.07 0 0 1-.297 1.185.962.962 0 0 0 .89-.542c.157-.334.281-.682.371-1.04a.855.855 0 0 1 .143-.296c.273-.323.78-.178 1.201-.136a1.975 1.975 0 0 0 1.805-.865c.448-.679.474-2.414-.594-2.598-1.116-.184-1.81 1.35-2.721 1.688z"/>
        <g fill="#04344D" opacity=".1">
            <path d="M83.712 35.755c.027-.146.045-.297.078-.442-.282.246-.297.664-.371 1.034a3.254 3.254 0 0 1-.175.625 3.39 3.39 0 0 0 .468-1.217zM83.807 38.201c.148-.38.248-.779.297-1.185-.297.125-.619.181-.94.163a3.426 3.426 0 0 1-.342.593c.337.026.674-.03.985-.16-.049.405-.149.803-.296 1.185a.965.965 0 0 0 .89-.542c.074-.135.133-.277.178-.424a.89.89 0 0 1-.772.37zM86.413 36.187c-.422-.041-.932-.187-1.205.136a.915.915 0 0 0-.143.297c-.026.077-.05.157-.07.236.281-.222.738-.103 1.12-.065a1.983 1.983 0 0 0 1.805-.865c.09-.143.157-.3.199-.465a1.978 1.978 0 0 1-1.706.726z"/>
        </g>
        <path fill="#DCE6F2" d="M93.496 59.537l4.525 5.432-.59 5.483-5.47-8.546z"/>
        <path fill="#000" d="M98.018 64.97l-.555 5.156-.036.326-4.934-7.713-.531-.833.154-.24 1.377-2.13.305.368z" opacity=".1"/>
        <path fill="#EFB7B9" d="M100.368 52.182c-1.531.438-2.994 1.943-4.267 3.77a32.169 32.169 0 0 0-2.303 3.952 49.752 49.752 0 0 0-1.092 2.337l-.213.498a39.38 39.38 0 0 0-.804 2.032s-11.721-8.798-9.867-9.39c.623-.198 1.442-1.531 2.252-3.21l.101-.214a56.754 56.754 0 0 0 1.466-3.412 101.58 101.58 0 0 0 1.597-4.346s17.804 6.65 13.13 7.983z"/>
        <path fill="#444053" d="M107.38 43.705s2.706 4.887 6.341 4.22c3.635-.666 2.14-2.624 2.14-2.624l-8.481-1.596z"/>
        <path fill="#A36468" d="M102.137 212.88c-2.398 1.094-7.82 0-7.82 0l-2.284-.141c-2.968-.19-7.935-.51-9.692-.652-2.563-.21-1.934-1.259-1.934-1.259v-6.336l12.439-3.145s4.917 1.68 6.264 3.145c1.279 1.398 2.027.323 4.309.726.112.02.231.044.356.074 2.166.495 3.34.69 4.035 2.482.14.377.252.763.336 1.155.64 2.885-3.615 2.865-6.01 3.952z"/>
        <path fill="#000" d="M107.81 207.774a9.306 9.306 0 0 1-1.4.717c-1.632.744-3.184 1.65-4.834 2.352-1.65.702-3.427 1.202-5.214 1.07-.935-.069-1.89-.297-2.783-.03a6.43 6.43 0 0 0-1.546.856c-2.968-.19-7.935-.51-9.692-.652-2.563-.21-1.934-1.259-1.934-1.259v-.74c.092 0 .196-.027.314-.036a5.612 5.612 0 0 1 1.81.27c1.288.35 2.57.693 3.858 1.036.214-.806.75-1.49 1.484-1.89a4.737 4.737 0 0 1 2.391-.547c1.997.026 3.888.971 5.882 1.066a3.246 3.246 0 0 0 1.629-.273c.273-.136.513-.334.78-.485a5.704 5.704 0 0 1 1.344-.454 29.64 29.64 0 0 0 3.843-1.238c.356-.139.772-.39.724-.77-.062-.503-.855-.563-1.062-1.025a.591.591 0 0 1 .023-.524c.113.02.232.044.357.074 2.157.495 3.332.69 4.026 2.482z" opacity=".1"/>
        <path fill="#A36468" d="M99.603 226.743c-2.82 1.286-9.2 0-9.2 0l-2.685-.157c-3.477-.222-9.335-.592-11.403-.767-3.018-.249-2.276-1.481-2.276-1.481v-7.467l14.638-3.703s5.786 1.976 7.37 3.703c1.505 1.644 2.375.379 5.072.853.133.023.273.053.418.086 2.55.592 3.932.814 4.748 2.923.165.443.297.897.395 1.36.736 3.394-4.258 3.367-7.077 4.65z"/>
        <path fill="#000" d="M106.28 220.733c-.525.327-1.076.61-1.648.844-1.92.874-3.748 1.94-5.688 2.767-1.94.826-4.033 1.413-6.137 1.259-1.098-.08-2.222-.356-3.264-.036a7.57 7.57 0 0 0-1.825 1.02c-3.477-.223-9.335-.593-11.403-.768-3.018-.249-2.276-1.481-2.276-1.481v-.871c.123-.02.246-.034.37-.041a6.521 6.521 0 0 1 2.131.317l4.537 1.22a3.585 3.585 0 0 1 1.76-2.225 5.545 5.545 0 0 1 2.816-.645c2.35.032 4.573 1.143 6.92 1.256.654.06 1.312-.05 1.91-.317.324-.163.594-.397.92-.572a6.462 6.462 0 0 1 1.582-.533 35.562 35.562 0 0 0 4.499-1.458c.418-.165.908-.462.851-.906-.074-.592-1.005-.663-1.252-1.208a.713.713 0 0 1 .03-.617c.133.024.273.054.418.086 2.55.57 3.932.8 4.748 2.91z" opacity=".1"/>
        <path fill="#023047" d="M93.223 175.503l-.793 18.61s-1.186 3.8-.543 4.888c.644 1.087 1.73 2.17 1.336 2.814-.395.642-5.143 7.591-6.677 4.925-1.534-2.665-3.047-14.217-3.047-14.217l1.415-14.268 8.309-2.752z"/>
        <path fill="url(#c)" d="M96.659 129.135l2.202 2.939v25.556s.644 6.813 0 8.22c-.644 1.407-3.908 4.22-3.908 4.22l-2.745-14.069.593-14.884 3.858-11.982z"/>
        <path fill="url(#d)" d="M98.86 118.235v13.824L96.39 142.82s-.792 25.968-.101 29.126c.691 3.157-2.374 6.122-2.374 6.122s-1.78.199-1.78 1.579-2.968 5.331-2.968 5.331l.098 7.702s1.288 14.416-.691 17.18c-1.98 2.763.691 3.16.691 3.16-2.472 8.095-14.341 6.22-15.412 5.332-1.071-.889 0-18.365 0-18.365s2.653-26.658 4.73-27.843c2.077-1.185.1-2.666.792-4.443.691-1.777-.691-6.614-.691-6.614s-.594-5.729-2.077-8.492c-1.484-2.764-1.288-10.367-1.288-10.367s-4.155-5.53-5.389-7.702c-1.234-2.17-2.03-7.799-1.733-12.046.202-2.87 1.712-7.05 2.67-9.455.46-1.152.793-1.899.793-1.899l.282.074 16.208 4.236 10.712 2.8z"/>
        <path fill="#000" d="M100.368 52.182c-1.531.438-2.994 1.943-4.267 3.77h-.332a10.603 10.603 0 0 1-9.2-5.31c-.387-.67-.7-1.38-.93-2.118.916-2.325 1.596-4.345 1.596-4.345s17.807 6.67 13.133 8.003z" opacity=".1"/>
        <path fill="#EFB7B9" d="M106.377 44.777a10.59 10.59 0 0 1-6.937 9.952 10.62 10.62 0 0 1-11.75-3.072 10.574 10.574 0 0 1-1.159-12.07 10.73 10.73 0 0 1 3.56-3.756 10.625 10.625 0 0 1 10.458-.522 10.589 10.589 0 0 1 5.813 8.692c.006.26.015.518.015.776z"/>
        <path fill="#000" d="M97.463 70.126l-.036.326-4.934-7.701a39.38 39.38 0 0 0-.804 2.031s-11.721-8.809-9.867-9.401c.623-.198 1.442-1.531 2.252-3.21l.101-.214c.86 2.56 5.86 7.674 7.94 9.724.241.237.44.433.594.575l.318.296.166.166c.757.779 3.95 4.215 4.27 7.408z" opacity=".1"/>
        <path fill="#F2B600" d="M101.152 96.257l-.54 17.349-.095 3.089s-6.398-.592-12.368-1.244c-4.808-.524-9.339-1.09-10.036-1.422-.89-.418-2.798-.74-4.303-.945-1.163-.157-2.077-.24-2.077-.24s-.341.101-.866.196c-1.146.207-3.158.376-4.33-.64-1.498-1.3 2.44-6.025 3.422-7.16l.216-.245-.37-3.421-.965-8.871s-.594-5.11-1.484-7.85a14.456 14.456 0 0 1-.513-2.384 19.066 19.066 0 0 1 .498-7.482c.282-1.036.461-2.096.535-3.167.148-2.74 8.53-13.329 10.608-14.292a4.4 4.4 0 0 0 2.124-2.114c.145-.293.254-.603.324-.922.89-3.85 3.142-2.322 3.142-2.322.543 3.013 8.95 10.986 8.95 10.986l.166.166c.834.853 4.55 4.858 4.285 8.276a10.016 10.016 0 0 0 .56 3.744 63.21 63.21 0 0 1 2.924 16.587l.193 4.328z"/>
        <path fill="#000" d="M89.24 75.656s-2.077 5.035-3.634 5.85c-1.558.815 4.376 1.718 3.635-5.85zM90.798 85.06s-4.747.593-4.747 1.481c0 .89 4.747-1.48 4.747-1.48zM95.769 90.836s-6.9 14.662-8.828 15.107c-1.929.444 8.828-15.107 8.828-15.107zM92.893 63.9l-5.706 2.476L80.3 55.991c.145-.293.253-.602.323-.921.89-3.85 3.143-2.322 3.143-2.322.543 3.012 8.95 10.986 8.95 10.986l.177.166z" opacity=".1"/>
        <path fill="#DCE6F2" d="M93.19 63.307l-5.706 2.477-6.887-10.385c.144-.293.253-.602.323-.921.89-3.851 3.142-2.323 3.142-2.323.544 3.013 8.95 10.986 8.95 10.986l.178.166z"/>
        <path fill="#000" d="M100.517 116.695s-6.398-.592-12.368-1.244l10.712 2.799v3.258c-.47.424-.876.643-1.14.53-1.234-.518-11.308-2.147-11.308-2.147s-5.852-2.962-12.167-6.517a7.009 7.009 0 0 1-2.315-2.147c-1.165-1.685-1.735-3.85-1.981-5.974a25.789 25.789 0 0 1-.155-3.667c.031-1.389.158-2.773.38-4.144-.61-5.31-.908-10.65-.89-15.995.074-8.294 7.864-11.256 7.864-11.256 14.317-1.259 9.878 21.845 9.878 21.845s-.828 6.517-1.054 7.183c-.225.666-1.035 1.777-.925 3.332.11 1.555 2.845 3.415 2.845 3.415s2.671 1.25 3.772 3.102c.801 1.365 6.006 3.216 8.946 4.538l-.094 3.089zM105.312 38.201c.005.488-.096.971-.297 1.416a8.746 8.746 0 0 1-.528 1.055 4.86 4.86 0 0 1-1.3 1.61c-.685.49-1.552.626-2.374.824-.822.199-1.676.516-2.145 1.215-.254.45-.424.941-.502 1.451-.078.51-.282.992-.593 1.404-.333.414-.904.55-1.389.332a1.401 1.401 0 0 1-.537-.69c-.338-.761-.424-1.606-.56-2.426-.137-.82-.33-1.665-.835-2.325-.504-.66-1.397-1.096-2.19-.839-.535.206-.964.621-1.186 1.15a6.578 6.578 0 0 0-.449 1.635 93.27 93.27 0 0 1-1.302 5.995.55.55 0 0 1-.098.225.428.428 0 0 1-.297.124c-.665.09-1.303-.376-1.973-.325-.07.004-.138.015-.205.032a10.568 10.568 0 0 1 1.071-12.085l.054-.015a3.2 3.2 0 0 0 1.187-.746c.428-.428.825-.886 1.187-1.372l.237-.296a13.524 13.524 0 0 1 2.315-2.195c.233-.19.501-.335.789-.426.246-.048.499-.056.748-.024 1.024.123 2.058.162 3.089.116a19.854 19.854 0 0 1 2.169-.22c1.878.054 3.48 1.378 4.667 2.83.638.743 1.208 1.599 1.247 2.57z" opacity=".1"/>
        <path fill="#04344D" d="M85.146 39.869c-.413.675-1.158 1.134-1.437 1.875-.41 1.075.282 2.414-.353 3.374-.21.322-.558.562-.676.933-.202.625.35 1.291.207 1.934-.142.643-.99 1.185-.765 1.813.133.273.367.486.653.592.45.257.967.372 1.483.329.81-.134 1.413-.927 2.235-.987.667-.047 1.305.415 1.97.33a.445.445 0 0 0 .297-.128.512.512 0 0 0 .098-.225 96.859 96.859 0 0 0 1.305-5.995 6.448 6.448 0 0 1 .445-1.635 2.126 2.126 0 0 1 1.187-1.15c.793-.254 1.683.178 2.19.839.508.66.7 1.504.837 2.325.137.82.223 1.664.558 2.426.102.282.291.525.54.693.445.257 1.045.053 1.386-.332.312-.412.516-.896.593-1.407.078-.51.248-1 .502-1.448.469-.7 1.326-1.016 2.145-1.215.82-.198 1.683-.338 2.374-.826a4.877 4.877 0 0 0 1.3-1.609c.439-.764.848-1.593.813-2.473-.039-.96-.608-1.816-1.217-2.562-1.187-1.451-2.792-2.775-4.67-2.826a18.49 18.49 0 0 0-2.17.22 18.6 18.6 0 0 1-3.089-.12c-.249-.029-.501-.02-.747.028a2.239 2.239 0 0 0-.787.426 13.53 13.53 0 0 0-2.317 2.192c-.44.583-.918 1.137-1.43 1.659a3.22 3.22 0 0 1-1.187.75c-.297.082-.594.023-.876.115-.875.275-.99 1.415-1.397 2.085z"/>
        <path fill="#000" d="M113.721 47.923c-2.374.435-4.341-1.481-5.43-2.88a11.616 11.616 0 0 1-.911-1.338l8.148 1.534.33.062s1.498 1.958-2.137 2.622z" opacity=".1"/>
        <g fill="#000" opacity=".1">
            <path d="M82.887 47.138A2.463 2.463 0 0 0 82.715 46c0 .03-.026.06-.035.09-.128.396.044.808.154 1.22a.887.887 0 0 0 .053-.172zM83.594 42.289c-.03.41-.023.821.023 1.23.03-.41.023-.822-.023-1.23zM104.202 39.52a4.86 4.86 0 0 1-1.3 1.61c-.685.49-1.549.626-2.374.824-.825.199-1.676.516-2.145 1.215-.254.45-.424.94-.502 1.45a3.098 3.098 0 0 1-.593 1.408c-.341.385-.94.592-1.386.332a1.416 1.416 0 0 1-.54-.693c-.335-.762-.424-1.603-.558-2.426-.133-.824-.332-1.665-.836-2.326-.505-.66-1.398-1.095-2.19-.838a2.117 2.117 0 0 0-1.187 1.15 6.448 6.448 0 0 0-.445 1.635 94.054 94.054 0 0 1-1.306 5.995.512.512 0 0 1-.098.225.445.445 0 0 1-.297.127c-.664.086-1.302-.376-1.97-.329-.822.06-1.424.853-2.234.984a2.511 2.511 0 0 1-1.484-.33 1.588 1.588 0 0 1-.543-.384.799.799 0 0 0-.11.69c.13.276.365.489.653.592.448.26.967.375 1.484.33.81-.131 1.412-.925 2.234-.984.668-.048 1.306.415 1.97.329a.445.445 0 0 0 .297-.128.512.512 0 0 0 .098-.225 93.818 93.818 0 0 0 1.306-5.995 6.448 6.448 0 0 1 .445-1.635 2.117 2.117 0 0 1 1.187-1.15c.792-.257 1.682.178 2.19.839.507.66.7 1.505.836 2.325.137.82.223 1.665.558 2.426.102.282.291.525.54.693.445.258 1.045.053 1.386-.332.312-.412.516-.896.593-1.407.078-.51.248-1.001.502-1.45.469-.7 1.326-1.014 2.145-1.215.82-.202 1.683-.335 2.374-.824a4.86 4.86 0 0 0 1.3-1.611c.44-.761.849-1.59.813-2.47a3.176 3.176 0 0 0-.036-.338 5.814 5.814 0 0 1-.777 1.91z"/>
        </g>
        <path fill="#000" d="M105.027 39.608a10.451 10.451 0 0 1 1.32 4.399c-2.644-1.481-5.13-3.107-6.385-3.673-2.187-.986-10.365-.838-13.44-.747.322-.573.698-1.114 1.122-1.617a10.63 10.63 0 0 1 10.736-3.465 10.612 10.612 0 0 1 6.662 5.097l-.015.006zM114.463 46.667c-1.427.438-3.757-.41-6.172-1.623a11.616 11.616 0 0 1-.911-1.34l8.148 1.535c.54.367.677.892-1.065 1.428z" opacity=".1"/>
        <path fill="url(#e)" d="M96.4 29.339s-7.789-.444-9.978 3.776l-.354 3.741-.593-.065-.119 2.545s11.905-.519 14.615.702c2.709 1.22 11.127 7.37 14.501 6.333 3.374-1.037-.297-2-.297-2s-4.644-1.964-4.644-3.504-1.151-9.677-13.13-11.528z"/>
        <path fill="#000" d="M81.377 168.02s4.97 4.814 7.122 4.444c0 0-6.083-.518-7.122-4.443zM80.338 170.251s.446 2.477 1.633 2.234c1.186-.243-1.633-2.234-1.633-2.234zM88.128 211.637s-7.057 5.48-5.867 5.628c1.19.148 5.867-5.628 5.867-5.628z" opacity=".1"/>
        <path fill="#FFF" d="M108.647 130.415v2.165l-4.653-.477v-1.688z" opacity=".1"/>
        <path fill="#000" d="M122.623 126.973c-3.19 4.073-13.724 1.259-13.724 1.259l-7.828-8.151-1.062-1.105 2.077-3.851s.594.196 1.585.54c5.246 1.83 21.638 7.881 18.952 11.308z" opacity=".1"/>
        <path fill="#EFB7B9" d="M122.327 126.38c-3.19 4.074-13.724 1.26-13.724 1.26l-7.828-8.152-1.063-1.105 2.078-3.85s.593.195 1.584.539c5.246 1.83 21.638 7.882 18.953 11.309z"/>
        <path fill="#000" d="M103.362 115.072c-.433 1.244-1.534 3.086-2.6 4.416l-1.062-1.105 2.078-3.85s.596.195 1.584.539z" opacity=".1"/>
        <path fill="#DCE6F2" d="M77.445 69.006s-7.789 2.962-7.863 11.256c-.018 5.344.28 10.685.89 15.995 0 0-2.226 12.366 4.08 15.92a344.043 344.043 0 0 0 12.166 6.517s10.074 1.63 11.312 2.148c1.237.518 5.537-6.146 4.87-7.257-.668-1.111-9.84-3.85-10.93-5.702-1.089-1.851-3.771-3.098-3.771-3.098s-2.736-1.864-2.846-3.419c-.11-1.555.698-2.665.926-3.332.229-.666 1.056-7.183 1.056-7.183s4.428-23.118-9.89-21.845z"/>
        <path fill="#000" d="M81.006 96.464s-10.534 1.185-9.718 4.888c0 0 4.003-3.735 9.718-4.888zM81.006 97.945s-5.98 4.37-4.881 4.665c1.098.297 4.881-4.665 4.881-4.665zM83.677 99.723s-1.706 3.062-.742 2.902c.964-.16.742-2.902.742-2.902z" opacity=".1"/>
        <path fill="url(#f)" d="M193.356 33.29s-11.276-.678-9.958 7.219c0 0-.264 1.395 1.003 2.029 0 0 .02-.593 1.157-.388.405.068.816.087 1.226.059a2.545 2.545 0 0 0 1.501-.62s3.172-1.305 4.407-6.483c0 0 .914-1.132.89-1.422l-1.905.815s.65 1.371.136 2.512c0 0-.06-2.462-.427-2.406-.074 0-.988.477-.988.477s1.119 2.388.273 4.126c0 0 .32-2.944-.623-3.954l-1.342.782s1.309 2.467.422 4.482c0 0 .228-3.09-.703-4.292l-1.217.944s1.231 2.435.48 4.106c0 0-.097-3.596-.744-3.869 0 0-1.063.936-1.223 1.321 0 0 .84 1.778.318 2.699 0 0-.32-2.396-.594-2.408 0 0-1.06 1.587-1.169 2.666a5.757 5.757 0 0 1 .911-2.826 3.18 3.18 0 0 0-1.62.838s.163-1.123 1.881-1.22c0 0 .89-1.206 1.11-1.28 0 0-1.71-.142-2.745.317 0 0 .911-1.057 3.06-.592l1.187-.978s-2.25-.296-3.205.033c0 0 1.098-.936 3.528-.255l1.306-.779s-1.917-.415-3.06-.264c0 0 1.205-.648 3.442.054l.935-.418s-1.406-.275-1.816-.32c-.41-.044-.433-.157-.433-.157a4.863 4.863 0 0 1 2.638.296s2.003-.72 1.961-.844z"/>
        <path fill="#66BF26" d="M227.617 72.786s-11.276-.678-9.958 7.218c0 0-.264 1.395 1.003 2.03 0 0 .02-.593 1.16-.389.405.068.816.088 1.226.06a2.542 2.542 0 0 0 1.483-.617s3.175-1.309 4.41-6.486c0 0 .91-1.129.875-1.42l-1.905.812s.65 1.372.14 2.512c0 0-.063-2.461-.428-2.405-.074 0-.99.477-.99.477s1.12 2.39.275 4.126c0 0 .32-2.944-.626-3.954l-1.326.773s1.308 2.467.421 4.481c0 0 .229-3.09-.703-4.292l-1.214.948s1.229 2.432.48 4.103c0 0-.097-3.596-.744-3.869 0 0-1.062.936-1.225 1.321 0 0 .842 1.777.32 2.699 0 0-.32-2.397-.593-2.408 0 0-1.06 1.587-1.17 2.665a5.775 5.775 0 0 1 .914-2.825 3.195 3.195 0 0 0-1.623.838s.166-1.123 1.884-1.22c0 0 .876-1.206 1.11-1.28 0 0-1.709-.142-2.745.317 0 0 .911-1.058 3.057-.578l1.187-.977s-2.252-.296-3.205.032c0 0 1.098-.936 3.528-.254l1.306-.78s-1.92-.411-3.062-.263c0 0 1.207-.649 3.445.053l.934-.417s-1.406-.276-1.819-.32c-.412-.045-.433-.157-.433-.157a4.872 4.872 0 0 1 2.641.296s2.006-.726 1.97-.85zM159.116 65.775s2.596-10.986-5.427-11.025c0 0-1.333-.498-2.172.64 0 0 .572.121.183 1.205-.134.384-.224.781-.267 1.185a2.54 2.54 0 0 0 .354 1.579s.75 3.347 5.638 5.444c0 0 .96 1.09 1.252 1.102l-.475-2.011s-1.466.406-2.504-.296c0 0 2.442.358 2.445 0 0-.074-.297-1.055-.297-1.055s-2.55.693-4.122-.435c0 0 2.852.817 4.012.062l-.534-1.457s-2.67.868-4.499-.35c0 0 3.012.752 4.36.042l-.728-1.357s-2.61.794-4.133-.228c0 0 3.56.515 3.947-.071 0 0-.742-1.206-1.095-1.43 0 0-1.888.526-2.719-.146 0 0 2.419.092 2.475-.163 0 0-1.385-1.312-2.442-1.608a5.82 5.82 0 0 1 2.638 1.38 3.192 3.192 0 0 0-.552-1.739s1.08.356.89 2.074c0 0 1.039 1.066 1.072 1.309 0 0 .43-1.656.154-2.755 0 0 .89 1.078.05 3.107l.76 1.348s.688-2.162.513-3.157c0 0 .74 1.238-.35 3.513l.55 1.418s.732-1.818.78-2.962c0 0 .436 1.298-.641 3.38l.255.99s.51-1.337.623-1.733c.113-.397.228-.4.228-.4a4.845 4.845 0 0 1-.738 2.547s.388 2.068.516 2.053zM164.573 6.691s-9.056-6.765-12.294.563c0 0-.988 1.022-.279 2.245 0 0 .338-.477 1.187.314.302.278.636.52.994.72.485.27 1.044.374 1.594.296 0 0 3.37.649 7.252-3 0 0 1.386-.442 1.513-.705l-2.044-.353s-.21 1.502-1.267 2.174c0 0 1.305-2.09.967-2.242-.068-.033-1.089-.148-1.089-.148s-.392 2.618-2.053 3.599c0 0 1.887-2.284 1.655-3.646l-1.552-.083s-.267 2.781-2.115 3.975c0 0 1.89-2.456 1.78-3.972l-1.534.124s-.315 2.707-1.86 3.69c0 0 1.899-3.056 1.51-3.637 0 0-1.404.199-1.75.43 0 0-.27 1.937-1.22 2.429 0 0 1.053-2.177.84-2.331 0 0-1.76.746-2.452 1.593a5.767 5.767 0 0 1 2.32-1.86 3.18 3.18 0 0 0-1.818-.19s.756-.847 2.246.015c0 0 1.395-.527 1.632-.459 0 0-1.35-1.057-2.469-1.244 0 0 1.344-.382 2.873 1.185l1.54-.157s-1.71-1.481-2.695-1.733c0 0 1.434-.178 3.09 1.724l1.519.065s-1.374-1.398-2.413-1.899c0 0 1.365.119 2.849 1.935l1.009.163s-1.027-.99-1.347-1.244c-.32-.255-.276-.368-.276-.368a4.864 4.864 0 0 1 2.044 1.695s2.062.45 2.113.337zM199.178 15.26s-3.62-10.696-10.448-6.492c0 0-1.395.296-1.504 1.69 0 0 .549-.2.792.925.09.4.227.79.407 1.158.245.497.645.901 1.139 1.152 0 0 2.41 2.444 7.68 1.635 0 0 1.391.421 1.646.276l-1.483-1.454s-1.027 1.116-2.28 1.072c0 0 2.265-.984 2.078-1.3-.039-.063-.813-.735-.813-.735s-1.798 1.934-3.727 1.807c0 0 2.852-.812 3.433-2.074l-1.228-.945s-1.799 2.14-4.003 2.074c0 0 2.967-.95 3.718-2.266l-1.336-.767s-1.78 2.052-3.626 1.987c0 0 3.3-1.442 3.309-2.141 0 0-1.267-.631-1.686-.637 0 0-1.323 1.442-2.373 1.312 0 0 2.1-1.2 2.011-1.445 0 0-1.869-.382-2.922-.074a5.793 5.793 0 0 1 2.967-.223 3.2 3.2 0 0 0-1.392-1.184s1.104-.27 1.843 1.282c0 0 1.448.359 1.602.545 0 0-.51-1.632-1.326-2.42 0 0 1.326.447 1.688 2.613l1.36.74s-.561-2.195-1.238-2.962c0 0 1.285.664 1.564 3.167l1.216.915s-.338-1.931-.908-2.933c0 0 1.057.871 1.247 3.208l.739.705s-.273-1.404-.386-1.8c-.113-.398-.02-.424-.02-.424.47.768.72 1.652.72 2.553 0 0 1.436 1.537 1.54 1.46zM175.552 15.788s-11.246-1.25-10.317 6.715c0 0-.336 1.38.89 2.073 0 0 .05-.592 1.187-.326a5.47 5.47 0 0 0 1.222.122c.555-.01 1.092-.2 1.529-.543 0 0 3.237-1.146 4.747-6.255 0 0 .968-1.081.947-1.375l-1.944.717s.594 1.401 0 2.515c0 0 .063-2.462-.296-2.423-.075 0-1.012.426-1.012.426s.997 2.444.065 4.147c0 0 .469-2.926-.424-3.98l-1.38.71s1.187 2.533.193 4.5c0 0 .385-3.075-.484-4.322l-1.261.889s1.104 2.49.27 4.123c0 0 .086-3.596-.546-3.901 0 0-1.11.888-1.29 1.256 0 0 .75 1.806.183 2.71 0 0-.199-2.408-.46-2.432 0 0-1.14 1.531-1.306 2.613a5.76 5.76 0 0 1 1.057-2.779 3.196 3.196 0 0 0-1.662.755s.22-1.11 1.94-1.122c0 0 .935-1.158 1.188-1.22 0 0-1.7-.229-2.76.177 0 0 .964-1.013 3.083-.423l1.25-.916s-2.259-.456-3.214-.16c0 0 1.145-.888 3.537-.074l1.344-.713s-1.896-.51-3.044-.418c0 0 1.237-.592 3.436.228l.955-.37s-1.391-.347-1.8-.412c-.41-.065-.425-.178-.425-.178a4.89 4.89 0 0 1 2.623.427s2-.637 1.98-.761zM273.95 102.921s-11.24-1.25-10.312 6.707c0 0-.335 1.38.89 2.073 0 0 .05-.592 1.187-.329.401.09.812.13 1.223.122a2.534 2.534 0 0 0 1.528-.542s3.237-1.147 4.733-6.253c0 0 .967-1.084.947-1.375l-1.944.714s.593 1.404 0 2.518c0 0 .062-2.465-.297-2.423-.074 0-1.012.424-1.012.424s.997 2.443.066 4.146c0 0 .468-2.923-.425-3.98l-1.38.713s1.187 2.533.196 4.5c0 0 .383-3.075-.486-4.325l-1.261.889s1.103 2.49.27 4.12c0 0 .086-3.596-.546-3.898 0 0-1.107.888-1.291 1.256 0 0 .754 1.807.184 2.71 0 0-.199-2.408-.46-2.432 0 0-1.14 1.531-1.306 2.613a5.76 5.76 0 0 1 1.057-2.779 3.169 3.169 0 0 0-1.662.756s.22-1.114 1.94-1.126c0 0 .938-1.158 1.187-1.217 0 0-1.7-.231-2.76.174 0 0 .965-1.01 3.087-.42l1.246-.916s-2.231-.42-3.202-.13c0 0 1.146-.888 3.537-.077l1.345-.71s-1.896-.51-3.045-.418c0 0 1.238-.593 3.436.228l.956-.374s-1.392-.346-1.801-.408c-.41-.063-.425-.178-.425-.178a4.871 4.871 0 0 1 2.623.424s2.006-.65 1.977-.777zM291.134 113.401s-11.24-1.247-10.312 6.706c0 0-.332 1.38.89 2.074 0 0 .05-.593 1.187-.326.4.087.81.127 1.22.118a2.567 2.567 0 0 0 1.522-.539s3.235-1.146 4.73-6.256c0 0 .97-1.08.947-1.374l-1.944.714s.594 1.404 0 2.518c0 0 .062-2.462-.297-2.423-.074 0-1.012.423-1.012.423s.998 2.444.066 4.147c0 0 .469-2.924-.425-3.978l-1.38.71s1.188 2.533.196 4.5c0 0 .383-3.074-.486-4.321l-1.261.888s1.104 2.491.273 4.123c0 0 .083-3.598-.55-3.9 0 0-1.106.888-1.29 1.255 0 0 .754 1.807.184 2.71 0 0-.199-2.408-.46-2.431 0 0-1.14 1.531-1.303 2.612a5.776 5.776 0 0 1 1.054-2.778 3.196 3.196 0 0 0-1.662.755s.223-1.114 1.944-1.122c0 0 .934-1.159 1.187-1.22 0 0-1.7-.229-2.76.177 0 0 .964-1.013 3.086-.424l1.246-.915s-2.231-.42-3.202-.13c0 0 1.146-.889 3.538-.074l1.344-.714s-1.896-.51-3.045-.418c0 0 1.238-.592 3.436.228l.956-.37s-1.392-.347-1.798-.412c-.407-.065-.428-.177-.428-.177a4.89 4.89 0 0 1 2.624.426s2.014-.654 1.985-.782zM252.982 25.13s-9.056-6.762-12.293.563c0 0-.989 1.022-.28 2.245 0 0 .339-.477 1.188.314.3.279.633.522.99.723.485.269 1.045.373 1.594.296 0 0 3.371.648 7.255-2.998 0 0 1.383-.444 1.514-.705l-2.039-.367s-.213 1.502-1.267 2.174c0 0 1.303-2.091.964-2.242-.068-.033-1.086-.148-1.086-.148s-.382 2.612-2.044 3.599c0 0 1.89-2.284 1.656-3.647l-1.552-.083s-.264 2.782-2.116 3.978c0 0 1.893-2.455 1.78-3.972l-1.537.125s-.296 2.704-1.857 3.687c0 0 1.899-3.056 1.507-3.637 0 0-1.403.198-1.75.43 0 0-.268 1.937-1.217 2.428 0 0 1.05-2.177.837-2.328 0 0-1.76.744-2.451 1.59a5.793 5.793 0 0 1 2.32-1.86 3.201 3.201 0 0 0-1.816-.189s.757-.847 2.246.015c0 0 1.392-.524 1.63-.46 0 0-1.35-1.057-2.47-1.24 0 0 1.348-.385 2.876 1.185l1.54-.157s-1.71-1.481-2.694-1.73c0 0 1.433-.18 3.086 1.72l1.522.069s-1.377-1.398-2.412-1.902c0 0 1.365.119 2.845 1.934l1.012.163s-1.024-1-1.344-1.262c-.32-.26-.273-.346-.273-.346a4.876 4.876 0 0 1 2.041 1.694s2.057.462 2.095.34zM259.98 73.95s-3.122-10.85-10.143-6.955c0 0-1.407.216-1.582 1.62 0 0 .558-.174.751.96.072.408.191.805.356 1.185.22.51.602.935 1.086 1.208 0 0 2.297 2.548 7.597 1.979 0 0 1.37.48 1.632.35l-1.404-1.523s-1.077 1.072-2.323.972c0 0 2.302-.89 2.124-1.206-.035-.065-.777-.773-.777-.773s-1.881 1.854-3.804 1.638c0 0 2.887-.681 3.522-1.908l-1.187-1s-1.893 2.055-4.092 1.895c0 0 2.991-.82 3.816-2.097l-1.3-.827s-1.884 1.97-3.712 1.822c0 0 3.362-1.294 3.404-1.99 0 0-1.24-.688-1.659-.711 0 0-1.386 1.38-2.44 1.202 0 0 2.155-1.105 2.078-1.353 0 0-1.852-.465-2.917-.208a5.8 5.8 0 0 1 2.967-.086 3.182 3.182 0 0 0-1.335-1.244s1.116-.222 1.78 1.363c0 0 1.428.42 1.576.616 0 0-.436-1.656-1.216-2.476 0 0 1.305.503 1.57 2.683l1.323.803s-.463-2.222-1.104-3.004c0 0 1.252.72 1.421 3.232l1.187.969s-.252-1.943-.774-2.962c0 0 1.018.918 1.1 3.258l.707.74s-.208-1.415-.297-1.818 0-.46 0-.46c.44.788.65 1.683.608 2.583 0 0 1.354 1.594 1.46 1.523zM182.468 89.887s-6.063-9.532-11.692-3.827c0 0-1.288.592-1.062 1.999 0 0 .49-.326.994.71.181.368.407.712.67 1.026.355.427.84.727 1.38.853 0 0 2.923 1.8 7.85-.237 0 0 1.45.077 1.664-.122l-1.78-1.066s-.733 1.333-1.959 1.585c0 0 1.964-1.481 1.7-1.754-.05-.053-.964-.521-.964-.521s-1.285 2.304-3.19 2.64c0 0 2.579-1.467 2.846-2.824l-1.422-.625s-1.237 2.503-3.391 2.962c0 0 2.64-1.626 3.07-3.083l-1.483-.427s-1.252 2.42-3.047 2.79c0 0 2.86-2.185 2.703-2.867 0 0-1.383-.31-1.78-.216 0 0-.941 1.715-2.003 1.84 0 0 1.756-1.665 1.61-1.884 0 0-1.907.074-2.857.622a5.782 5.782 0 0 1 2.831-.919 3.186 3.186 0 0 0-1.629-.82s1.006-.524 2.077.809c0 0 1.484 0 1.689.148 0 0-.89-1.481-1.867-2.035 0 0 1.395.118 2.261 2.135l1.499.397s-1.071-1.999-1.905-2.57c0 0 1.403.337 2.273 2.704l1.4.592s-.789-1.792-1.581-2.63c0 0 1.234.592 1.973 2.817l.89.512s-.593-1.3-.804-1.659c-.21-.358-.127-.441-.127-.441a4.856 4.856 0 0 1 1.308 2.307s1.775 1.18 1.855 1.079z" opacity=".1"/>
        <path fill="url(#f)" d="M230.261 49.697s-5.765-9.713-11.572-4.185c0 0-1.306.562-1.122 1.966 0 0 .495-.314.97.738.17.374.384.726.638 1.048.341.437.817.75 1.353.889 0 0 2.864 1.89 7.852 0 0 0 1.448.121 1.668-.071l-1.742-1.12s-.772 1.307-2.006 1.523c0 0 2.009-1.43 1.757-1.7-.054-.057-.95-.554-.95-.554s-1.356 2.266-3.264 2.541c0 0 2.623-1.386 2.929-2.73l-1.4-.658s-1.315 2.467-3.485 2.86c0 0 2.692-1.542 3.167-2.985l-1.466-.474s-1.33 2.37-3.134 2.696c0 0 2.926-2.097 2.79-2.782 0 0-1.371-.355-1.78-.272 0 0-.995 1.685-2.06 1.777 0 0 1.807-1.605 1.67-1.83 0 0-1.91.014-2.875.533a5.8 5.8 0 0 1 2.858-.83 3.192 3.192 0 0 0-1.606-.87s1.024-.495 2.077.87c0 0 1.484.05 1.683.202 0 0-.84-1.481-1.801-2.092 0 0 1.388.16 2.193 2.204l1.483.445s-1.006-2.032-1.825-2.63c0 0 1.395.381 2.19 2.772l1.38.642s-.733-1.815-1.484-2.665c0 0 1.214.63 1.888 2.876l.869.539s-.558-1.318-.754-1.683c-.196-.364-.112-.444-.112-.444a4.864 4.864 0 0 1 1.237 2.346s1.7 1.206 1.786 1.108zM193.784 70.12s.296-11.285-7.558-9.695c0 0-1.407-.216-2 1.07 0 0 .593 0 .427 1.14-.054.407-.06.818-.018 1.226a2.53 2.53 0 0 0 .668 1.481s1.415 3.122 6.64 4.183c0 0 1.161.873 1.452.826l-.89-1.872s-1.35.693-2.51.222c0 0 2.462-.145 2.394-.506 0-.074-.51-.975-.51-.975s-2.357 1.2-4.122.412c0 0 2.967.222 3.938-.752l-.828-1.313s-2.428 1.387-4.475.57c0 0 3.1.124 4.276-.845l-.988-1.185s-2.395 1.31-4.092.616c0 0 3.596-.216 3.857-.87 0 0-.973-1.028-1.365-1.185 0 0-1.739.888-2.688.408 0 0 2.374-.397 2.389-.66 0 0-1.624-1.004-2.719-1.078 1.01.018 1.997.3 2.864.817a3.183 3.183 0 0 0-.89-1.59s1.13.127 1.285 1.836c0 0 1.237.835 1.317 1.066 0 0 .086-1.709-.41-2.728 0 0 1.093.874.683 3.03l1.018 1.167s.231-2.257-.14-3.196c0 0 .974 1.064.374 3.51l.822 1.277s.35-1.928.164-3.063c0 0 .688 1.185.059 3.44l.45.917s.23-1.412.26-1.824c.029-.412.142-.438.142-.438.178.883.107 1.799-.205 2.645 0 0 .798 1.955.929 1.916z"/>
        <ellipse cx="206.769" cy="212.17" fill="#B8C5CC" opacity=".1" rx="7.991" ry="1.348"/>
        <ellipse cx="177.638" cy="232.632" fill="#B8C5CC" opacity=".1" rx="7.991" ry="1.348"/>
        <ellipse cx="26.997" cy="222.149" fill="#6C63FF" opacity=".1" rx="7.991" ry="1.348"/>
        <ellipse cx="238.249" cy="231.284" fill="#B8C5CC" opacity=".1" rx="7.991" ry="1.348"/>
        <ellipse cx="246.57" cy="214.184" fill="#66BF26" rx="11.932" ry="2.014"/>
        <path fill="url(#f)" d="M251.517 210.887a3.438 3.438 0 0 0 1.136-1.712c.148-.681-.142-1.496-.792-1.744-.73-.279-1.51.225-2.104.734-.594.51-1.267 1.093-2.042.987a3.107 3.107 0 0 0 .962-2.906 1.216 1.216 0 0 0-.267-.593c-.407-.432-1.14-.245-1.626.095-1.543 1.084-1.974 3.175-1.983 5.06-.154-.679-.023-1.387-.026-2.074-.003-.687-.196-1.481-.787-1.842a2.35 2.35 0 0 0-1.187-.297c-.694-.023-1.468.045-1.94.551-.594.628-.436 1.686.074 2.37.51.684 1.29 1.125 2.009 1.605.575.343 1.065.81 1.436 1.366.042.077.077.159.104.243h4.35a12 12 0 0 0 2.683-1.843z"/>
        <path fill="#A8A8A8" d="M21.632 215.884s4.555-.139 5.935-1.116c1.38-.978 7.012-2.142 7.353-.575.341 1.567 6.849 7.787 1.703 7.829-5.145.041-11.955-.8-13.326-1.635-1.371-.836-1.665-4.503-1.665-4.503z"/>
        <path fill="#000" d="M36.71 221.477c-5.146.041-11.956-.8-13.327-1.635-1.045-.634-1.46-2.912-1.6-3.964h-.15s.296 3.67 1.658 4.503c1.362.832 8.181 1.676 13.326 1.635 1.484 0 1.997-.54 1.97-1.321-.207.476-.774.773-1.878.782z" opacity=".2"/>
    </g>
</svg>
